<?xml version="1.0" encoding="UTF-8"?>
<!DOCTYPE svg PUBLIC "-//W3C//DTD SVG 1.1//EN" "http://www.w3.org/Graphics/SVG/1.1/DTD/svg11.dtd">
<!-- Creator: CorelDRAW -->
<svg xmlns="http://www.w3.org/2000/svg" xml:space="preserve" width="210mm" height="297mm" version="1.1" style="shape-rendering:geometricPrecision; text-rendering:geometricPrecision; image-rendering:optimizeQuality; fill-rule:evenodd; clip-rule:evenodd"
viewBox="0 0 21000 29700"
 xmlns:xlink="http://www.w3.org/1999/xlink"
 xmlns:xodm="http://www.corel.com/coreldraw/odm/2003">
 <defs>
  <style type="text/css">
   <![CDATA[
    .str0 {stroke:black;stroke-width:17.64;stroke-miterlimit:22.9256}
    .fil0 {fill:blue}
   ]]>
  </style>
   <clipPath id="id0">
    <rect x="4954.52" y="4673.72" width="14130.96" height="14130.96"/>
   </clipPath>
   <clipPath id="id1">
    <rect x="9481.17" y="8489.28" width="4661.42" height="1616.1"/>
   </clipPath>
 </defs>
 <g id="Camada_x0020_1">
  <metadata id="CorelCorpID_0Corel-Layer"/>
  <g style="clip-path:url(#id0)">
   <image id="__x2014_Pngtree_x2014_mobile_x0020_phone_x0020_png_x0020_smartphone_x0020_camera_6067590.png" x="4954.52" y="4673.73" width="14130.95" height="14130.95" xlink:href="Cellphone_Images\Cellphone_ImgID1.png"/>
  </g>
  <path class="fil0 str0" d="M10600.73 6118.77c-141,1.85 -391.31,-2.26 -540.58,6.04 -149.28,8.3 -197.5,29.02 -243.57,51.17 -46.09,22.15 -90.03,45.72 -130.57,73.59 -40.55,27.86 -77.69,60 -111.93,106.82 -34.25,46.81 -65.58,108.29 -87.41,157.79 -21.82,49.48 -34.15,86.98 -44.34,137.65 -10.18,50.66 -18.22,114.5 -23.02,1754.86 -4.8,1640.34 -6.37,4857.2 -5.85,6516.8 0.52,1659.6 3.12,1761.95 8.59,1828.82 5.46,66.87 13.79,98.25 27.8,138.45 14,40.2 33.67,89.21 56.73,133.13 23.06,43.92 49.5,82.76 82.15,122.01 32.64,39.25 71.47,78.91 118.57,111.55 47.1,32.63 102.47,58.26 154.12,73.95 51.64,15.7 99.57,21.49 801.89,29.03 702.32,7.54 2059.03,16.83 2763.87,11.05 704.84,-5.79 757.82,-26.64 818.91,-50.39 61.11,-23.76 130.35,-50.4 176.01,-75.57 45.66,-25.16 67.75,-48.83 96.06,-76.7 28.31,-27.86 62.85,-59.91 93.17,-103.73 30.33,-43.82 56.45,-99.4 74.91,-158.43 18.47,-59.02 29.3,-121.49 34.53,-193.63 5.24,-72.15 4.89,-153.97 4.99,-1823.25 0.11,-1669.28 0.66,-4926 -9.48,-6579.51 -10.15,-1653.52 -30.98,-1703.83 -51.65,-1750.14 -20.67,-46.32 -41.16,-88.64 -67.04,-131.04 -25.87,-42.4 -57.12,-84.89 -97.5,-122.16 -40.38,-37.27 -89.9,-69.33 -134.82,-96.37 -44.91,-27.04 -85.23,-49.06 -136.61,-62.71 -51.37,-13.65 -113.81,-18.92 -278.17,-20.98 -164.37,-2.07 -430.66,-0.93 -563.81,0.35 -133.13,1.26 -133.13,2.64 -133.71,31.08 -0.56,28.43 -1.7,83.91 -5.7,125.54 -3.98,41.63 -10.79,69.39 -23.86,95.11 -13.06,25.72 -32.37,49.38 -61.43,67.54 -29.04,18.15 -67.82,30.8 -442.28,37.27 -374.44,6.46 -1084.57,6.74 -1447.91,2.42 -363.34,-4.34 -379.89,-13.29 -401.89,-34.44 -22.01,-21.17 -49.45,-54.53 -65.48,-80.52 -16.03,-25.99 -20.66,-44.6 -18.64,-88.37 2.03,-43.78 10.69,-112.71 -0.82,-143.25 -11.51,-30.55 -43.22,-22.7 -184.23,-20.83z"/>
  <g style="clip-path:url(#id1)">
   <image id="logo_header-removebg-preview.png" x="9481.17" y="8489.29" width="4661.41" height="1616.09" xlink:href="Cellphone_Images\Cellphone_ImgID2.png"/>
  </g>
 </g>
</svg>
